<svg version="1.1" id="Layer_1" xmlns="http://www.w3.org/2000/svg" xmlns:xlink="http://www.w3.org/1999/xlink" x="0px" y="0px"
	 width="100%" viewBox="0 0 512 512" enable-background="new 0 0 512 512" xml:space="preserve">
<path fill="#FFC107" opacity="1.000000" stroke="none" 
	d="
M1.000000,216.000000 
	C1.000000,209.312363 1.000000,202.624710 1.256563,195.801544 
	C2.018752,195.056473 2.650568,194.513168 3.010788,193.827255 
	C7.358977,185.547546 13.718622,179.992874 23.318684,178.942245 
	C30.149893,178.194641 37.002617,177.645920 43.839752,176.949646 
	C56.545013,175.655807 69.236336,174.216080 81.951828,173.034683 
	C91.118896,172.182983 100.324997,171.757187 109.497116,170.952499 
	C123.540794,169.720383 137.571777,168.341827 151.604965,166.992554 
	C158.118729,166.366272 164.635269,165.742325 171.124191,164.911514 
	C172.144806,164.780838 173.472595,163.754883 173.900650,162.802368 
	C177.997849,153.685547 181.978302,144.515244 185.903000,135.322189 
	C193.518005,117.485161 201.105652,99.636322 208.647903,81.768433 
	C215.805801,64.811081 222.863113,47.811275 230.019592,30.853312 
	C233.928619,21.590477 240.152115,13.764392 250.237640,12.276631 
	C264.960876,10.104745 276.396362,13.515819 283.405396,29.900070 
	C290.891174,47.398727 298.339935,64.913208 305.803497,82.421371 
	C317.207855,109.173965 328.595734,135.933624 340.075745,162.653717 
	C340.494873,163.629242 341.740326,164.763580 342.723816,164.893738 
	C346.945404,165.452408 351.213257,165.660599 355.463928,166.000549 
	C363.980164,166.681610 372.505402,167.267715 381.010162,168.070572 
	C394.051086,169.301666 407.070557,170.761566 420.113220,171.972534 
	C428.948517,172.792847 437.820221,173.223511 446.653717,174.059799 
	C459.361755,175.262848 472.026550,177.008926 484.753418,177.900925 
	C496.167633,178.700928 505.136688,182.893478 510.746033,193.232925 
	C511.163757,194.002930 512.233398,194.419250 513.000000,195.000000 
	C513.000000,201.687637 513.000000,208.375290 512.731140,215.196716 
	C509.618225,219.081482 507.161438,223.224716 503.845917,226.498154 
	C497.773346,232.493698 491.199249,237.981903 484.824097,243.670242 
	C475.633209,251.871048 466.474792,260.108826 457.227295,268.245361 
	C444.041016,279.847473 430.811798,291.401123 417.550568,302.917480 
	C411.011444,308.596191 404.235107,314.008148 397.830872,319.831970 
	C395.792175,321.685883 393.177704,324.567688 393.318787,326.823273 
	C393.646118,332.056396 395.515381,337.189270 396.720032,342.371979 
	C400.819733,360.010193 405.007263,377.628906 408.966187,395.298798 
	C414.522186,420.097076 419.857666,444.944702 425.380798,469.750458 
	C427.745483,480.371002 424.384216,489.487427 416.793213,496.370789 
	C408.092072,504.260773 393.257812,505.158081 384.293457,499.759369 
	C374.311218,493.747742 364.314301,487.760437 354.333313,481.746735 
	C323.018188,462.879059 291.740387,443.948639 260.307892,425.278564 
	C258.549255,424.233948 255.014481,424.446625 253.175018,425.538055 
	C234.105667,436.852875 215.297791,448.607666 196.252853,459.964478 
	C173.997726,473.235565 151.652451,486.359802 129.199295,499.292511 
	C118.593849,505.401123 108.618301,504.558044 97.332550,496.706085 
	C90.836258,492.186371 86.264374,478.008545 88.209358,469.485504 
	C92.205177,451.975525 95.986053,434.416168 100.038727,416.919556 
	C106.571182,388.716980 113.267502,360.552399 119.854553,332.362366 
	C120.951317,327.668640 121.515320,323.367340 116.537529,319.847260 
	C111.215599,316.083832 106.520889,311.425232 101.606094,307.096375 
	C95.443924,301.668915 89.378044,296.131805 83.196587,290.726685 
	C70.459160,279.588959 57.698055,268.477966 44.895729,257.414948 
	C38.341305,251.751007 31.163528,246.707993 25.190430,240.496780 
	C17.478989,232.477921 6.794984,227.157730 2.388410,216.047058 
	C2.320128,215.874908 1.479949,216.008896 1.000000,216.000000 
z"/>
</svg>