<svg version="1.1" id="Layer_1" xmlns="http://www.w3.org/2000/svg" xmlns:xlink="http://www.w3.org/1999/xlink" x="0px" y="0px"
	 width="100%" viewBox="0 0 512 512" enable-background="new 0 0 512 512" xml:space="preserve">
<path fill="#FFC107" opacity="1.000000" stroke="none" 
	d="
M1.000001,195.468536 
	C1.770393,194.413742 2.844829,193.992218 3.265204,193.216309 
	C8.857071,182.895218 17.800631,178.695511 29.194799,177.903915 
	C42.259521,176.996231 55.266525,175.283264 68.311707,174.059830 
	C76.982887,173.246597 85.686478,172.780121 94.358681,171.976334 
	C107.570206,170.751755 120.762215,169.317566 133.971985,168.073090 
	C142.312622,167.287308 150.670593,166.685577 159.020660,165.999908 
	C163.105057,165.664536 167.207245,165.456512 171.260483,164.895508 
	C172.250854,164.758438 173.502426,163.642181 173.922684,162.669006 
	C186.794174,132.862991 199.603577,103.030029 212.362045,73.175377 
	C218.768341,58.184765 224.833206,43.044197 231.465408,28.155375 
	C237.396912,14.839585 248.537888,10.169406 262.320587,12.127485 
	C273.438416,13.706976 279.929535,21.157103 284.067871,31.359514 
	C290.312561,46.754887 297.126007,61.918911 303.640350,77.205727 
	C310.797394,94.000893 317.894409,110.821655 325.007996,127.635315 
	C330.039978,139.528946 335.021759,151.444138 340.154572,163.293991 
	C340.503754,164.100143 341.890045,164.819931 342.868378,164.932327 
	C349.698639,165.717102 356.547211,166.345291 363.392426,166.996719 
	C377.424225,168.332092 391.452118,169.713455 405.492401,170.953445 
	C414.497375,171.748749 423.533722,172.195374 432.534363,173.031250 
	C445.411407,174.227142 458.268280,175.639297 471.134460,176.952515 
	C477.639313,177.616486 484.157867,178.164322 490.648438,178.945923 
	C500.395172,180.119629 507.005951,185.577072 511.125336,194.324707 
	C511.381836,194.869354 512.029419,195.229843 512.747559,195.338013 
	C513.000000,201.687637 513.000000,208.375290 512.729004,215.196442 
	C509.622406,219.073639 507.174744,223.210159 503.867157,226.475693 
	C497.794128,232.471603 491.219971,237.960556 484.844513,243.649368 
	C475.653107,251.850800 466.494080,260.089172 457.246033,268.226410 
	C444.059082,279.829468 430.829224,291.384155 417.567230,302.901398 
	C411.027710,308.580536 404.251465,313.993439 397.845490,319.816284 
	C395.804291,321.671661 393.178284,324.547760 393.317352,326.802795 
	C393.640076,332.036560 395.504456,337.172028 396.709808,342.355255 
	C400.811523,359.993958 405.006104,377.612030 408.965210,395.282776 
	C414.521667,420.082916 419.820038,444.940948 425.394470,469.736969 
	C427.424805,478.768127 423.312134,491.930054 416.528717,496.802277 
	C406.357697,504.107727 395.360992,505.346497 384.371063,499.625061 
	C374.053802,494.253845 364.318604,487.763184 354.336884,481.749146 
	C323.019653,462.880249 291.739807,443.948547 260.305176,425.277313 
	C258.547119,424.233093 255.012573,424.448730 253.172516,425.540436 
	C234.101486,436.854919 215.291000,448.607849 196.245071,459.965515 
	C173.988480,473.237854 151.645645,486.370209 129.188049,499.298889 
	C118.577278,505.407410 108.616066,504.561707 97.320145,496.696777 
	C90.818581,492.169983 86.268173,477.992218 88.214348,469.468811 
	C92.212608,451.958252 95.985825,434.395966 100.039787,416.898529 
	C106.574318,388.694641 113.231339,360.518982 119.910583,332.348938 
	C121.117523,327.258606 120.976997,323.027435 116.150108,319.498016 
	C111.005920,315.736542 106.365501,311.278412 101.565750,307.055511 
	C95.400291,301.631073 89.337257,296.089905 83.155357,290.684479 
	C70.416969,279.546082 57.650749,268.439240 44.852375,257.369843 
	C38.425266,251.810989 31.417162,246.831421 25.542686,240.748795 
	C17.714777,232.643570 6.867956,227.300491 2.388533,216.047195 
	C2.319824,215.874573 1.479975,216.008911 1.000000,216.000000 
	C1.000000,209.312363 1.000000,202.624710 1.000001,195.468536 
M196.991882,197.528580 
	C188.816010,203.604904 179.277817,205.256897 169.461624,205.998795 
	C160.445206,206.680222 151.414658,207.210403 142.414474,208.062378 
	C129.865707,209.250320 117.350380,210.793884 104.799850,211.960495 
	C95.467979,212.827927 86.093575,213.231781 76.756355,214.050247 
	C71.604416,214.501846 66.490082,215.382507 60.334869,216.206879 
	C67.025200,222.021545 72.772858,226.935913 78.430275,231.952042 
	C87.917358,240.363724 97.321129,248.869370 106.806831,257.282623 
	C121.081734,269.943695 135.668854,282.269073 149.586761,295.309723 
	C157.177216,302.421753 160.909180,311.799469 161.044632,322.470276 
	C161.147308,330.556488 160.154114,338.343231 158.196594,346.267792 
	C152.412216,369.684479 147.350891,393.280518 142.074677,416.821625 
	C139.766296,427.121063 137.623138,437.457489 135.285156,448.334473 
	C148.986847,440.108307 162.021393,432.265015 175.073410,424.450897 
	C193.285965,413.547211 211.617523,402.837585 229.696960,391.717773 
	C243.371216,383.307404 257.962402,381.148346 272.840546,386.301025 
	C281.282196,389.224609 288.880798,394.699768 296.687408,399.316162 
	C315.101440,410.205200 333.403137,421.284119 351.769684,432.253662 
	C360.218719,437.299896 368.713379,442.269684 378.134552,447.833527 
	C377.879089,445.217987 377.899384,443.634186 377.547668,442.137878 
	C376.103699,435.994995 374.450165,429.900696 373.047516,423.748871 
	C366.712158,395.963776 359.801636,368.289368 354.329559,340.334076 
	C349.533569,315.832855 354.030609,303.189819 373.032562,286.505829 
	C385.246948,275.781403 397.602356,265.217468 409.908081,254.597275 
	C416.864044,248.594116 423.918060,242.702621 430.799072,236.615143 
	C438.181885,230.083725 445.413574,223.381454 452.991364,216.499313 
	C451.667023,215.894653 450.731873,215.152588 449.737152,215.061569 
	C437.968048,213.984756 426.193481,212.961884 414.413208,212.013977 
	C405.235168,211.275482 396.032410,210.817764 386.866547,209.958954 
	C370.396759,208.415771 353.939850,206.727432 337.489929,204.982742 
	C322.711487,203.415344 311.014435,196.737747 304.606232,182.985123 
	C297.571838,167.888779 291.190430,152.485809 284.640198,137.166946 
	C278.284576,122.303291 272.122955,107.356758 265.780273,92.487526 
	C263.100189,86.204597 260.174683,80.026344 257.071106,73.159752 
	C255.758484,75.584343 254.784775,77.079102 254.099457,78.696083 
	C247.602448,94.025513 241.165588,109.380409 234.689392,124.718674 
	C227.457703,141.846207 220.357101,159.031601 212.891006,176.056564 
	C209.360489,184.107269 205.670944,192.253540 196.991882,197.528580 
z"/>
</svg>