<?xml version="1.0" standalone="no"?>
<!DOCTYPE svg PUBLIC "-//W3C//DTD SVG 20010904//EN"
 "http://www.w3.org/TR/2001/REC-SVG-20010904/DTD/svg10.dtd">
<svg version="1.0" xmlns="http://www.w3.org/2000/svg"
 width="512.000000pt" height="512.000000pt" viewBox="0 0 512.000000 512.000000"
 preserveAspectRatio="xMidYMid meet">

<g transform="translate(0.000000,512.000000) scale(0.100000,-0.100000)"
fill="#000000" stroke="none">
<path d="M4386 4765 c-42 -15 -70 -40 -357 -323 l-186 -184 -559 -79 c-307
-43 -573 -81 -591 -84 -77 -14 -141 -110 -128 -193 9 -61 71 -127 130 -138 29
-5 182 13 562 66 287 41 524 72 526 70 10 -13 443 -2210 435 -2210 -5 0 -88
-7 -185 -16 -96 -9 -177 -13 -180 -10 -3 3 -51 412 -105 908 -77 695 -103 911
-117 938 -33 64 -111 100 -188 85 -49 -9 -119 -78 -128 -125 -3 -21 35 -402
93 -930 54 -492 97 -897 95 -899 -2 -3 -451 -46 -998 -97 -1106 -103 -1038
-92 -1084 -174 -47 -83 -12 -194 74 -234 41 -20 -137 -33 1540 113 424 37 771
63 773 59 2 -4 -6 -32 -17 -62 -57 -154 -40 -387 39 -524 l19 -32 -1428 0
-1429 0 14 47 c16 54 18 179 3 243 -41 177 -191 327 -375 375 -365 95 -706
-244 -619 -614 42 -178 181 -321 364 -375 49 -14 257 -16 2101 -16 1991 0
2049 1 2122 19 199 51 358 181 448 366 94 194 92 396 -6 595 -81 163 -228 289
-404 345 -30 10 -56 19 -58 20 -1 1 -108 528 -237 1171 l-234 1169 239 240
c132 132 244 253 250 268 35 95 -20 199 -118 227 -46 12 -48 12 -96 -5z m198
-3439 c70 -34 133 -97 165 -166 22 -46 26 -69 26 -145 0 -80 -3 -97 -29 -148
-72 -141 -211 -208 -368 -177 -121 23 -206 89 -256 199 -48 105 -30 249 43
346 33 42 98 90 153 111 61 23 199 13 266 -20z m-3984 -328 c52 -36 73 -71 78
-132 10 -126 -107 -216 -223 -171 -136 52 -152 239 -25 306 50 27 128 25 170
-3z"/>
</g>
</svg>
